<?xml version="1.0" encoding="UTF-8" standalone="no"?>
<svg
   width="410"
   height="334.9183"
   version="1.1"
   id="svg12"
   sodipodi:docname="outrun_icon_simple.svg"
   inkscape:version="1.3.2 (091e20e, 2023-11-25)"
   xmlns:inkscape="http://www.inkscape.org/namespaces/inkscape"
   xmlns:sodipodi="http://sodipodi.sourceforge.net/DTD/sodipodi-0.dtd"
   xmlns="http://www.w3.org/2000/svg"
   xmlns:svg="http://www.w3.org/2000/svg">
  <defs
     id="defs12" />
  <sodipodi:namedview
     id="namedview12"
     pagecolor="#ffffff"
     bordercolor="#000000"
     borderopacity="0.25"
     inkscape:showpageshadow="2"
     inkscape:pageopacity="0.0"
     inkscape:pagecheckerboard="0"
     inkscape:deskcolor="#d1d1d1"
     inkscape:zoom="0.70893372"
     inkscape:cx="204.53252"
     inkscape:cy="222.16463"
     inkscape:window-width="1392"
     inkscape:window-height="1212"
     inkscape:window-x="3535"
     inkscape:window-y="139"
     inkscape:window-maximized="0"
     inkscape:current-layer="svg12" />
  <g
     id="g1"
     transform="translate(-142,-166.05953)">
    <path
       style="display:inline;fill:#ffc43c;stroke:none"
       d="M 185,247 H 509 C 498.987,230.99 483.046,216.825 468,205.63 404.738,158.558 317.852,153.328 249,190.769 229.79,201.216 212.178,214.571 197.715,231 c -4.494,5.104 -9.853,9.751 -12.715,16 z"
       id="path7" />
    <path
       style="display:inline;fill:#ffc43c;stroke:none"
       d="m 159,284 c -5.58,20.864 -13.616,41.231 -15,63 h 406 c -0.127,-15.384 -5.544,-32.36 -10.051,-47 -1.277,-4.15 -2.544,-12.432 -6.368,-14.972 C 531.24,283.472 527.661,284.001 525,284 H 506 433 159 m -17,98 c 0.127,6.121 1.903,11.951 2.718,18 3.514,26.086 12.304,51.491 26.093,74 4.003,6.534 8.277,13.092 13.193,18.981 1.778,2.129 3.872,4.858 7.011,4.129 5.001,-1.163 8.714,-7.614 12.02,-11.11 8.761,-9.262 17.813,-18.578 27.389,-27 3.239,-2.848 7.228,-8.125 11.576,-9.11 3.697,-0.837 6.669,2.828 9,5.115 5.408,5.304 15.227,20.365 24,15.48 6.314,-3.515 11.144,-10.323 16.269,-15.334 C 301.53,445.119 311.846,435.154 322,425 c 3.994,-3.994 7.915,-8.08 12,-11.981 1.89,-1.805 4.142,-4.333 7,-4.267 2.787,0.063 5.117,2.527 7,4.292 4.335,4.063 8.052,8.621 12.09,12.956 10.57,11.348 21.944,22.034 32.91,33 5.24,5.24 10.619,12.553 17,16.381 4.761,2.856 8.715,-1.214 12,-4.396 5.268,-5.103 10.614,-10.037 16,-15.009 2.127,-1.964 4.756,-5.152 8,-4.8 4.53,0.491 9.654,7.054 12.715,10.109 9.669,9.652 19.662,18.98 29.281,28.715 3.079,3.115 7.335,10.319 12.008,10.94 3.208,0.426 5.906,-2.842 7.822,-4.945 5.449,-5.977 10.22,-13.033 14.313,-19.995 9.38,-15.956 17.862,-32.996 22.575,-51 3.712,-14.18 4.509,-28.682 7.286,-43 z"
       id="path9" />
  </g>
</svg>
